<svg xmlns="http://www.w3.org/2000/svg"  viewBox="0 0 100 100" width="400px" height="400px"><path fill="#7c8a9e" d="M72.635,37.698C70.16,29.53,68,21,60.122,18.574l0.373-1.892c4.166-2.658,2.345-12.31,0.641-12.668	c-1.687-0.355-7.719,6.057-5.661,11.601l-0.62,1.61C53.063,17.003,51.416,17,50,17s-3.063,0.003-4.855,0.225l-0.62-1.61	c2.058-5.544-3.974-11.955-5.661-11.601c-1.704,0.359-3.525,10.01,0.641,12.668l0.373,1.892C32,21,29.84,29.53,27.365,37.698	C23.6,41.483,18,50.856,18,67.681c0,4.29,2.771,5.08,5,5.319c3.149,11.545,10,17,10,17h17h17c0,0,6.851-5.455,10-17	c2.229-0.239,5-1.029,5-5.319C82,50.856,76.4,41.483,72.635,37.698z"/><path fill="#1f212b" d="M67,91H33c-0.227,0-0.446-0.077-0.623-0.218c-0.284-0.227-6.891-5.589-10.159-16.872	C20.391,73.636,17,72.648,17,67.682c0-18.988,7.028-27.962,9.478-30.507l0.322-1.07c2.28-7.592,4.636-15.435,11.928-18.193	l-0.126-0.643c-2.699-2.076-2.982-6.586-2.374-9.928c0.269-1.473,0.941-3.992,2.43-4.305c1.521-0.321,3.38,1.614,4.109,2.459	c2.151,2.497,3.978,6.421,2.821,10.099l0.214,0.553C47.374,16,48.812,16,50,16s2.626,0,4.198,0.147l0.214-0.553	c-1.156-3.678,0.67-7.602,2.821-10.099c0.729-0.846,2.585-2.782,4.109-2.459c1.488,0.313,2.161,2.832,2.43,4.305	c0.608,3.342,0.325,7.852-2.374,9.928l-0.126,0.643C68.564,20.67,70.92,28.513,73.2,36.105l0.322,1.07	C75.972,39.719,83,48.694,83,67.682c0,4.967-3.391,5.955-5.218,6.229c-3.269,11.282-9.875,16.645-10.159,16.872	C67.446,90.923,67.227,91,67,91z M33.371,89h33.258c1.242-1.109,6.728-6.444,9.406-16.263c0.108-0.397,0.449-0.688,0.858-0.731	C79.358,71.742,81,70.905,81,67.682c0-18.704-6.944-27.139-9.073-29.278c-0.115-0.116-0.2-0.258-0.248-0.415l-0.394-1.308	c-2.318-7.719-4.509-15.011-11.457-17.15c-0.49-0.15-0.786-0.646-0.688-1.149l0.373-1.892c0.053-0.268,0.213-0.503,0.443-0.649	c1.665-1.063,2.012-3.584,2.07-4.992c0.122-2.969-0.718-5.333-1.158-5.84c-0.418,0.139-1.874,1.161-3.199,3.25	c-0.909,1.433-2.282,4.249-1.257,7.009c0.085,0.229,0.083,0.48-0.004,0.708l-0.62,1.61c-0.165,0.429-0.599,0.686-1.057,0.633	C52.979,18,51.327,18,50,18s-2.979,0-4.732,0.217c-0.456,0.054-0.892-0.205-1.057-0.633l-0.62-1.61	c-0.087-0.228-0.089-0.479-0.004-0.708c1.025-2.76-0.348-5.576-1.257-7.009c-1.287-2.03-2.699-3.053-3.216-3.23	c-0.444,0.544-1.263,2.888-1.142,5.82c0.059,1.408,0.405,3.929,2.07,4.992c0.23,0.146,0.391,0.381,0.443,0.649l0.373,1.892	c0.099,0.502-0.197,0.999-0.688,1.149c-6.948,2.14-9.139,9.431-11.457,17.15l-0.394,1.308c-0.048,0.157-0.133,0.299-0.248,0.415	C25.944,40.543,19,48.978,19,67.682c0,3.224,1.642,4.06,4.106,4.324c0.409,0.043,0.75,0.334,0.858,0.731	C26.644,82.556,32.129,87.891,33.371,89z"/><path fill="#fef6aa" d="M74.5,61c0,14.083-10.969,25.5-24.5,25.5S25.5,75.083,25.5,61s9-24.5,24.5-24.5S74.5,46.917,74.5,61z"/><path fill="#1f212b" d="M50,87c-13.785,0-25-11.664-25-26c0-15.187,9.813-25,25-25s25,9.813,25,25C75,75.336,63.785,87,50,87	z M50,37c-14.579,0-24,9.42-24,24c0,13.785,10.767,25,24,25s24-11.215,24-25C74,46.42,64.579,37,50,37z"/><circle cx="40" cy="26" r="3.5" fill="#fefdef"/><path fill="#1f212b" d="M40,30c-2.206,0-4-1.794-4-4s1.794-4,4-4s4,1.794,4,4S42.206,30,40,30z M40,23c-1.654,0-3,1.346-3,3	s1.346,3,3,3s3-1.346,3-3S41.654,23,40,23z"/><path fill="#1f212b" d="M34.501,30c-0.035,0-0.07-0.003-0.105-0.011l-14-3c-0.271-0.058-0.442-0.324-0.385-0.594	c0.059-0.27,0.329-0.442,0.594-0.384l14,3c0.271,0.058,0.442,0.324,0.385,0.594C34.938,29.839,34.731,30,34.501,30z"/><path fill="#1f212b" d="M33.059,32.354c-0.004,0-0.008,0-0.012,0L18.488,32c-0.276-0.007-0.495-0.236-0.488-0.512	s0.236-0.467,0.512-0.488l14.559,0.354c0.276,0.007,0.495,0.236,0.488,0.512C33.552,32.138,33.329,32.354,33.059,32.354z"/><path fill="#1f212b" d="M18.499,37c-0.244,0-0.458-0.18-0.494-0.429c-0.039-0.273,0.151-0.527,0.425-0.566l14-2	c0.268-0.039,0.526,0.151,0.565,0.424s-0.151,0.527-0.425,0.566l-14,2C18.547,36.999,18.522,37,18.499,37z"/><path fill="#1f212b" d="M65.499,30c-0.23,0-0.438-0.161-0.488-0.395c-0.058-0.27,0.114-0.536,0.385-0.594l14-3	c0.268-0.058,0.535,0.114,0.594,0.384c0.058,0.27-0.114,0.536-0.385,0.594l-14,3C65.569,29.997,65.534,30,65.499,30z"/><path fill="#1f212b" d="M66.941,32.354c-0.271,0-0.493-0.216-0.5-0.488c-0.007-0.276,0.212-0.505,0.488-0.512L81.488,31	c0.283,0.028,0.505,0.212,0.512,0.488c0.007,0.276-0.212,0.505-0.488,0.512l-14.559,0.354	C66.949,32.354,66.945,32.354,66.941,32.354z"/><path fill="#1f212b" d="M81.501,37c-0.023,0-0.048-0.001-0.071-0.005l-14-2c-0.273-0.039-0.464-0.292-0.425-0.566	c0.04-0.273,0.299-0.464,0.565-0.424l14,2c0.273,0.039,0.464,0.292,0.425,0.566C81.959,36.82,81.745,37,81.501,37z"/><path fill="#1f212b" d="M53,27.154C53,27.791,51.657,29,50,29s-3-1.209-3-1.846C47,26.517,48.343,26,50,26	S53,26.517,53,27.154z"/><circle cx="40" cy="26" r="1.5" fill="#1f212b"/><circle cx="60" cy="26" r="3.5" fill="#fefdef"/><path fill="#1f212b" d="M60,30c-2.206,0-4-1.794-4-4s1.794-4,4-4s4,1.794,4,4S62.206,30,60,30z M60,23c-1.654,0-3,1.346-3,3	s1.346,3,3,3s3-1.346,3-3S61.654,23,60,23z"/><circle cx="60" cy="26" r="1.5" fill="#1f212b"/><path fill="#1f212b" d="M53.765,44.635c0,0.971-1.686-1.231-3.765-1.231s-3.765,2.202-3.765,1.231	c0-0.971,1.686-3.517,3.765-3.517S53.765,43.664,53.765,44.635z"/><path fill="#1f212b" d="M48.752,52.215c0.069,0.957-1.748-1.092-3.795-0.944c-2.048,0.148-3.551,2.437-3.62,1.481	c-0.069-0.957,1.409-3.584,3.457-3.732C46.841,48.871,48.683,51.258,48.752,52.215z"/><path fill="#1f212b" d="M51.248,52.215c-0.069,0.957,1.748-1.092,3.795-0.944c2.048,0.148,3.551,2.437,3.62,1.481	c0.069-0.957-1.409-3.584-3.457-3.732C53.159,48.871,51.317,51.258,51.248,52.215z"/><path fill="#1f212b" d="M38.752,53.618c0.311,0.92-2.183-0.753-4.152-0.086c-1.969,0.667-2.989,3.189-3.3,2.269	c-0.311-0.92,0.931-3.821,2.9-4.488C36.169,50.646,38.441,52.698,38.752,53.618z"/><path fill="#1f212b" d="M61.248,53.618c-0.311,0.92,2.183-0.753,4.152-0.086c1.969,0.667,2.989,3.189,3.3,2.269	c0.311-0.92-0.931-3.821-2.9-4.488C63.831,50.646,61.559,52.698,61.248,53.618z"/><path fill="#1f212b" d="M35.358,47.7c0.261,1.006,1.483-1.53,3.496-2.052c2.013-0.522,4.054,0.958,3.793-0.048	c-0.261-1.006-1.847-2.984-3.86-2.462C36.774,43.66,35.097,46.694,35.358,47.7z"/><path fill="#1f212b" d="M64.642,47.7c-0.261,1.006-1.483-1.53-3.496-2.052c-2.013-0.522-4.054,0.958-3.793-0.048	c0.261-1.006,1.847-2.984,3.86-2.462C63.226,43.66,64.903,46.694,64.642,47.7z"/></svg>